<svg width="32" height="24" viewBox="0 0 32 24" fill="none" xmlns="http://www.w3.org/2000/svg">
<path d="M17.1441 24V17.1429H21.7158L16.0011 10.2857L10.2864 17.1429H14.8582V24H9.14351V23.9429C8.9515 23.9543 8.76863 24 8.57204 24C6.29859 24 4.11826 23.0969 2.51069 21.4895C0.903123 19.882 0 17.7019 0 15.4286C0 11.0309 3.32595 7.44686 7.59369 6.95543C7.96787 4.99953 9.01196 3.23514 10.5464 1.96573C12.0808 0.696314 14.0096 0.00122061 16.0011 0C17.9929 0.00110094 19.9221 0.696102 21.4569 1.96549C22.9917 3.23488 24.0362 4.99933 24.4109 6.95543C28.6786 7.44686 32 11.0309 32 15.4286C32 17.7019 31.0969 19.882 29.4893 21.4895C27.8817 23.0969 25.7014 24 23.428 24C23.2359 24 23.0508 23.9543 22.8565 23.9429V24H17.1441Z" fill="#2E3093"/>
</svg>
